<svg width="34" height="35" viewBox="0 0 34 35" fill="none" xmlns="http://www.w3.org/2000/svg">
<path d="M13.8324 8.00151C14.8275 7.73526 15.8841 7.58333 17 7.58333C26.0152 7.58333 31.1667 17.5 31.1667 17.5C31.1667 17.5 29.9923 19.7607 27.7837 22.1233M6.16126 12.9358C3.98822 15.2769 2.83334 17.5 2.83334 17.5C2.83334 17.5 7.98486 27.4167 17 27.4167C18.1363 27.4167 19.2112 27.2591 20.2221 26.9838M16.2917 21.6912C14.7558 21.4336 13.4992 20.3521 12.9918 18.9167M17.7083 13.3088C19.488 13.6073 20.8927 15.012 21.1912 16.7917M4.25001 4.75L29.75 30.25" stroke="#0B349C" stroke-width="2" stroke-linecap="round" stroke-linejoin="round"/>
</svg>
