<svg width="391" height="305" viewBox="0 0 391 305" fill="none" xmlns="http://www.w3.org/2000/svg">
<path fill-rule="evenodd" clip-rule="evenodd" d="M259.019 26.0492C258.454 25.9783 256.666 25.7476 255.045 25.5367C246.585 24.4365 236.112 24.3974 226.836 25.4313C215.456 26.6992 203.143 29.814 192.552 34.1031C185.664 36.8925 181.906 38.8742 173.411 44.1971C161.788 51.4795 153.953 58.0382 145.702 67.3918C133.978 80.683 123.554 99.0654 119.09 114.323C117.679 119.144 114.687 133.171 114.027 138.061C112.227 151.378 113.238 168.552 116.657 182.745C120.44 198.45 125.905 210.664 135.719 225.341C142.829 235.975 148.647 242.432 158.615 250.753C168.342 258.872 176.648 264.136 187.451 269.027C195.406 272.628 202.274 274.913 211.255 276.946C225.445 280.158 238.417 280.878 252.82 279.252C268.037 277.534 284.64 272.469 296.582 265.902C306.962 260.193 316.003 253.959 322.764 247.847C343.596 229.013 357.814 204.102 363.179 177.033C367.133 157.087 366.436 137.586 361.064 117.842C357.655 105.311 353.676 96.1229 346.847 85.0146C341.994 77.1212 337.311 70.7893 332.319 65.374C318.017 49.8586 300.978 38.6522 280.751 31.4593C277.526 30.3123 261.819 26.4021 259.019 26.0492ZM275.734 35.5601C315.56 47.6293 346.909 81.4137 356.992 123.128C360.551 137.855 361.265 151.761 359.296 168.005C358.706 172.881 355.589 186.296 353.934 191.09C344.291 219.016 326.699 241.289 302.255 256.519C281.947 269.172 258.351 275.502 234.734 274.635C222.223 274.175 209.24 271.602 197.105 267.179C173.316 258.507 152.151 241.492 138.184 219.811C119.509 190.822 113.86 156.079 122.374 122.58C127.527 102.305 136.329 85.7908 150.236 70.3093C153.012 67.2186 159.724 60.6828 162.606 58.2638C166.958 54.6114 177.194 47.8233 184.396 43.8141C192.701 39.1913 207.038 34.1824 217.797 32.1449C230.301 29.7775 244.252 29.3809 255.774 31.0654C259.868 31.6642 271.583 34.3022 275.734 35.5601ZM264.783 83.3C263.84 83.6767 262.82 83.9289 262.516 83.8607C261.555 83.6444 260.015 84.97 255.527 89.8793L251.161 94.6538L232.709 90.4816C222.56 88.1867 206.219 84.572 196.396 82.4486L178.535 78.5879L176.572 79.9725L174.61 81.357L161.988 137.219L149.367 193.081L150.567 195.223L151.768 197.365L191.303 206.537L230.839 215.71L235.549 220.118C241.041 225.258 245.202 228.776 247.304 230.058C250.633 232.089 253.753 232.437 258.385 231.296C262.277 230.338 263.361 229.552 268.717 223.81C290.221 200.758 321.581 166.174 327.034 159.499C329.753 156.17 329.815 156.067 330.44 153.856C331.573 149.85 331.175 145.443 329.381 142.117C327.748 139.088 323.262 134.693 294.575 108.018C274.033 88.918 268.113 83.5257 266.987 82.8908C266.643 82.6968 265.988 82.8185 264.783 83.3ZM269.056 91.5913C271.085 93.4308 277.202 99.1002 282.651 104.19C317.247 136.51 315.494 134.831 316.741 136.835C317.198 137.57 317.755 138.914 317.978 139.821C318.343 141.305 318.326 141.774 317.817 144.464L317.25 147.456L295.048 171.804C254.966 215.76 253.084 217.721 249.553 219.199C248.31 219.719 248.25 219.716 245.113 219.007C242.021 218.308 241.888 218.253 240.25 216.987C239.323 216.271 238.533 215.652 238.495 215.611C238.456 215.57 239.542 214.857 240.909 214.026C242.275 213.195 244.206 211.817 245.199 210.965C247.03 209.393 247.42 209.263 248.135 209.98C248.355 210.2 248.723 210.351 248.954 210.317C249.185 210.282 250.283 209.242 251.394 208.006C252.962 206.262 253.498 205.816 253.782 206.017C255.139 206.972 255.439 207.093 255.882 206.864C256.79 206.395 256.482 205.6 254.788 204.035C252.442 201.868 251.29 201.128 250.627 201.364C250.221 201.508 250.067 201.468 249.968 201.195C249.896 200.998 250.789 196.477 251.952 191.148L254.065 181.46L257.472 181.905C263.083 182.637 266.233 182.521 270.854 181.414C275.749 180.24 281.647 177.177 285.733 173.685C288.098 171.664 291.567 167.347 293.128 164.48C295.259 160.568 296.675 155.326 297.178 149.487C297.725 143.132 296.018 135.957 292.545 130.019C288.321 122.795 282.429 118.126 273.309 114.776C271.728 114.195 270.279 113.579 270.09 113.406C269.901 113.234 269.631 111.938 269.489 110.526C268.816 103.779 265.262 98.9968 258.995 96.4062C257.399 95.7465 257.369 95.7166 257.827 95.2634C258.086 95.0074 259.295 93.7008 260.513 92.3598C263.406 89.1773 264.594 88.072 265.02 88.1682C265.211 88.2114 267.027 89.7519 269.056 91.5913ZM246.115 99.1229C248.865 99.9429 249.406 100.189 250.422 101.079C251.938 102.408 253.465 104.86 253.857 106.595C254.164 107.954 254.133 108.15 251.971 118.593C249.101 132.452 237.948 181.77 234.994 193.663L232.687 202.951L231.527 204.401C230.146 206.126 228.194 207.339 226.007 207.83L224.429 208.184L197.173 202.113C182.183 198.774 166.537 195.193 162.406 194.155L154.894 192.267L163.585 153.179C172.472 113.211 179.144 84.4661 179.602 84.1727C179.743 84.0822 182.097 84.4389 184.832 84.9652C191.635 86.2746 242.215 97.9594 246.115 99.1229ZM261.376 104.107C262.564 105.415 263.772 107.75 264.186 109.541L264.551 111.113L262.116 122.752C258.609 139.508 247.362 189.164 245.326 196.877C243.504 203.78 242.781 205.811 241.663 207.168C240.493 208.588 236.265 210.508 234.399 210.466C233.299 210.441 233.371 210.152 234.869 208.576C236.651 206.701 237.303 205.676 238.007 203.639C238.361 202.617 243.394 180.825 249.192 155.213L259.734 108.646L259 105.494C258.596 103.761 258.345 102.261 258.442 102.161C258.69 101.905 260.416 103.049 261.376 104.107ZM211.318 102.221C204.434 101.535 197.525 103.124 190.635 106.977C184.878 110.197 179.267 116.423 176.871 122.249C174.824 127.227 173.49 133.836 173.68 138.055C173.8 140.723 175.015 146.621 175.97 149.169C177.551 153.389 182.87 160.772 186.459 163.73C190.516 167.072 193.603 168.471 200.221 169.968C205.729 171.213 208.152 171.42 211.552 170.933C220.581 169.641 228.172 165.499 233.706 158.845C236.137 155.921 237.499 153.772 238.854 150.719C243.669 139.869 242.846 127.791 236.623 117.97C233.005 112.26 227.818 107.774 221.716 105.076C218.922 103.841 213.992 102.487 211.318 102.221ZM278.896 123.522C279.646 123.967 280.281 124.478 280.307 124.658C280.361 125.048 279.463 126.172 276.682 129.192C274.011 132.094 273.964 132.117 272.726 131.116C271.401 130.046 267.886 126.54 267.759 126.162C267.632 125.787 269.34 124.636 272.298 123.1C275.734 121.318 275.106 121.277 278.896 123.522ZM210.398 113.025L209.223 117.903L205.711 117.101C201.305 116.095 200.844 115.869 201.078 114.834C201.293 113.883 204.224 109.461 205.137 108.711C206.25 107.796 208.287 107.55 210.87 108.02L211.573 108.147L210.398 113.025ZM220.928 111.035C221.548 111.441 222.09 112.061 222.291 112.594C222.785 113.9 223.422 120.427 223.077 120.648C222.919 120.749 220.941 120.494 218.682 120.081L214.574 119.33L215.709 114.309L216.845 109.287L218.372 109.824C219.213 110.12 220.363 110.665 220.928 111.035ZM286.531 131.444L288.1 133.869L286.349 137.882C285.385 140.089 284.552 141.929 284.497 141.971C284.223 142.181 278.282 136.315 278.371 135.921C278.468 135.488 281.991 131.14 283.212 129.945C283.816 129.354 284.457 128.904 284.636 128.944C284.815 128.985 285.668 130.11 286.531 131.444ZM230.779 119.63C231.461 120.576 232.218 121.793 232.462 122.335L232.905 123.319L231.126 122.79C230.147 122.499 229.137 122.05 228.88 121.792C228.441 121.351 228.206 119.697 228.267 117.482L228.29 116.616L228.915 117.263C229.258 117.618 230.097 118.683 230.779 119.63ZM197.398 110.086C197.387 110.12 196.966 110.956 196.46 111.944C195.308 114.197 194.777 114.503 192.797 114.055C191.992 113.873 191.29 113.597 191.238 113.441C191.185 113.285 191.74 112.775 192.472 112.306C194.68 110.893 197.542 109.603 197.398 110.086ZM325.015 145.062C326.132 147.671 325.977 151.389 324.633 154.196C324.1 155.31 319.424 160.577 301.55 180.198C271.007 213.727 261.281 224.213 259.795 225.216C259.174 225.636 257.849 226.178 256.85 226.42C255.154 226.834 254.861 226.823 252.35 226.255C248.881 225.471 248.644 225.144 250.967 224.35C254.125 223.272 255.494 222.447 257.477 220.425C266.257 211.476 314.693 158.169 320.989 150.525C322.105 149.171 322.254 148.841 322.978 146.119C323.873 142.754 323.998 142.69 325.015 145.062ZM269.366 135.482L269.976 136.289L268.203 138.429C267.228 139.606 265.659 141.332 264.716 142.264L263 143.959L263.041 142.765C263.09 141.35 265.136 132.83 265.521 132.441C265.829 132.13 268.33 134.108 269.366 135.482ZM291.334 142.416C291.596 143.894 291.896 148.555 291.736 148.657C291.52 148.795 289.434 146.847 289.004 146.106C288.621 145.445 288.632 145.382 289.402 143.759C290.802 140.807 291.022 140.654 291.334 142.416ZM192.234 119.659C192.285 120.017 189.75 127.37 189.004 129.03L188.704 129.697L185.404 128.924C181.75 128.068 180.923 127.726 180.945 127.077C180.969 126.392 183.308 121.783 184.682 119.715L185.923 117.845L189.051 118.552C191.549 119.117 192.189 119.34 192.234 119.659ZM207.021 128.227L205.814 133.566L200.002 132.252L194.191 130.937L194.924 128.498C196.032 124.811 197.595 121.278 198.244 120.992C198.653 120.812 199.94 121.015 203.506 121.821L208.228 122.889L207.021 128.227ZM222.875 126.601C223.161 126.92 223.319 127.616 223.308 128.503C223.289 129.836 222.801 136.623 222.687 137.129C222.654 137.272 220.317 136.845 216.859 136.063L211.085 134.758L212.292 129.419L213.499 124.081L217.962 125.09C221.52 125.895 222.516 126.201 222.875 126.601ZM234.855 129.205C235.542 129.732 235.932 131.111 236.179 133.885C236.351 135.827 236.387 139.551 236.24 140.202C236.206 140.351 234.506 140.038 231.882 139.4L227.579 138.354L228.02 134.445C228.262 132.296 228.527 129.861 228.607 129.034L228.754 127.53L231.533 128.159C233.061 128.504 234.556 128.975 234.855 129.205ZM276.923 142.447C279.218 144.582 281.642 147.123 281.593 147.342C281.431 148.059 277.168 153.956 276.138 154.889L275.479 155.485L273.351 153.632C270.411 151.072 267.447 148.052 267.529 147.698C267.64 147.215 273.914 139.88 274.167 139.937C274.209 139.947 275.449 141.076 276.923 142.447ZM289.267 153.982C290.671 155.447 290.824 155.979 290.26 157.435C288.976 160.754 286.163 165.468 285.633 165.188C285.49 165.112 284.032 163.792 282.394 162.254L279.416 159.459L280.003 158.641C280.798 157.535 284.758 151.829 285.241 151.095L285.628 150.507L286.885 151.656C287.576 152.288 288.648 153.335 289.267 153.982ZM184.918 134.09L187.534 134.854L187.294 136.698C186.941 139.41 186.453 144.48 186.492 145.028C186.523 145.462 186.273 145.446 183.637 144.85C181 144.254 180.701 144.134 180.225 143.478C179.62 142.643 179.198 139.047 179.302 135.619C179.398 132.464 179.375 132.471 184.918 134.09ZM203.509 143.756L202.297 149.117L197.057 147.842C194.012 147.101 191.738 146.437 191.629 146.257C191.439 145.945 191.773 142.754 192.453 138.383C192.788 136.236 192.866 136.017 193.305 136.002C193.571 135.993 196.248 136.528 199.255 137.19L204.721 138.396L203.509 143.756ZM221.264 143.406C220.805 145.417 219.122 150.549 218.667 151.33C217.999 152.472 217.334 152.47 212.211 151.312L207.579 150.264L208.786 144.926L209.993 139.588L215.766 140.893L221.54 142.199L221.264 143.406ZM234.744 146.187C233.919 148.213 231.984 152.008 231.05 153.434C230.111 154.868 230.007 154.945 229.052 154.904C228.497 154.881 226.925 154.615 225.558 154.315L223.073 153.768L223.575 152.345C223.852 151.563 224.596 149.368 225.229 147.469C225.862 145.569 226.49 143.947 226.625 143.865C227.04 143.613 228.045 143.744 231.647 144.521L235.118 145.269L234.744 146.187ZM271.232 159.041L272.15 159.952L270.476 161.515C268.673 163.199 265.306 165.926 264.546 166.318C264.149 166.523 263.661 166.188 261.328 164.111L258.577 161.663L259.151 159.096C259.817 156.119 260.438 154.888 262.206 153.038L263.468 151.717L266.891 154.923C268.774 156.686 270.727 158.539 271.232 159.041ZM279.307 166.377C280.841 167.84 282.127 169.086 282.166 169.145C282.294 169.341 276.288 173.194 274.541 174.037L272.829 174.863L270.602 172.845C269.378 171.735 268.396 170.729 268.42 170.61C268.479 170.32 273.972 165.204 275.171 164.322C275.692 163.939 276.208 163.646 276.318 163.671C276.428 163.695 277.772 164.913 279.307 166.377ZM185.9 151.113C186.339 151.551 186.782 155.602 186.417 155.836C185.956 156.13 182.944 151.766 182.517 150.185C182.38 149.678 182.458 149.676 183.913 150.158C184.761 150.439 185.655 150.869 185.9 151.113ZM200.278 158.033C199.177 162.888 198.767 164.041 198.194 163.898C197.972 163.843 196.618 163.206 195.185 162.483L192.58 161.168L192.191 157.339C191.977 155.234 191.896 153.231 192.01 152.89C192.189 152.354 192.378 152.283 193.381 152.371C194.022 152.428 196.046 152.796 197.88 153.188L201.215 153.902L200.278 158.033ZM213.716 156.961L215.312 157.491L215.058 158.309C214.919 158.76 213.957 160.448 212.921 162.061C210.699 165.519 210.513 165.626 206.965 165.489C205.021 165.415 204.585 165.331 204.473 165.014C204.399 164.802 204.822 162.484 205.412 159.862L206.486 155.094L209.304 155.763C210.853 156.13 212.839 156.669 213.716 156.961ZM223.74 159.163C224.152 159.348 224.457 159.636 224.42 159.803C224.382 159.97 223.076 160.892 221.517 161.852C218.856 163.491 218.688 163.556 218.756 162.917C218.796 162.543 219.266 161.508 219.802 160.618C221.033 158.571 221.796 158.29 223.74 159.163ZM258.711 168.923C259.375 169.663 259.22 169.958 257.654 170.94L256.271 171.807L256.574 170.467C257.058 168.325 257.735 167.836 258.711 168.923ZM265.085 175.068C266.043 176.27 266.033 176.276 263.013 176.416C261.839 176.471 260.669 176.528 260.411 176.543C260.116 176.561 259.975 176.432 260.029 176.193C260.13 175.747 263.431 173.859 263.925 173.965C264.112 174.005 264.634 174.501 265.085 175.068ZM196.947 185.728C195.876 190.603 195.871 191.011 196.871 191.345C197.792 191.652 198.226 191.337 198.623 190.073C198.928 189.1 198.934 189.097 200.429 189.133C202.617 189.185 204.014 188.198 204.444 186.298C204.846 184.519 204.008 183.868 199.113 182.158L197.829 181.709L196.947 185.728ZM216.193 190.348C215.111 195.135 215.133 195.637 216.43 195.777C217.151 195.855 217.22 195.78 217.782 194.323C218.107 193.478 218.494 192.814 218.643 192.847C218.791 192.881 219.426 193.806 220.054 194.903C221.152 196.821 221.242 196.909 222.394 197.169C223.742 197.474 223.74 197.486 222.694 195.367C221.825 193.606 221.818 193.332 222.62 192.486C223.361 191.703 223.847 190.119 223.612 189.249C223.441 188.616 222.317 187.924 220.329 187.227C219.589 186.969 218.575 186.598 218.074 186.405L217.164 186.053L216.193 190.348ZM162.097 174.255C161.808 174.48 161.462 175.702 160.828 178.74L159.956 182.917L160.643 183.158C161.533 183.471 162.087 183.167 162.538 182.117C162.92 181.228 163.157 181.132 165.17 181.046C166.476 180.991 167.997 180.163 168.449 179.261C168.921 178.321 168.603 177.038 167.647 176.028C166.945 175.287 166.456 175.045 164.652 174.544C162.948 174.071 162.411 174.01 162.097 174.255ZM173.166 176.752C172.847 177.019 168.198 184.347 168.126 184.697C168.104 184.803 168.475 184.977 168.952 185.084C169.641 185.24 169.99 185.134 170.662 184.565C171.222 184.09 171.784 183.87 172.332 183.911C173.383 183.99 174.724 184.706 174.626 185.136C174.498 185.704 175.245 186.508 176.076 186.695C176.513 186.794 176.898 186.759 176.93 186.617C177.02 186.218 176.169 179.49 175.882 178.334C175.742 177.77 175.46 177.195 175.256 177.057C174.635 176.639 173.499 176.473 173.166 176.752ZM181.826 178.984C180.26 179.416 179.307 180.467 179.434 181.624C179.542 182.605 180.35 183.452 182.334 184.663C184.046 185.708 184.079 186.332 182.423 186.353C181.653 186.363 181.088 186.187 180.185 185.657C178.632 184.744 178.673 184.745 178.479 185.603C178.246 186.633 178.578 186.936 180.696 187.623C182.931 188.349 184.171 188.292 185.317 187.411C186.96 186.148 186.509 184.52 184.061 182.875C182.672 181.942 181.806 180.905 182.134 180.567C182.433 180.258 184.557 180.835 185.605 181.51C186.112 181.836 186.554 182.111 186.588 182.121C186.737 182.164 186.947 180.706 186.837 180.395C186.446 179.284 183.621 178.489 181.826 178.984ZM190.583 180.897C187.349 181.788 187.228 184.278 190.326 186.166C191.133 186.658 191.969 187.274 192.185 187.536C192.526 187.949 192.521 188.035 192.144 188.182C191.274 188.523 190.004 188.303 188.857 187.612C187.316 186.683 187.206 186.681 187.004 187.577C186.858 188.222 186.961 188.448 187.615 188.918C188.737 189.723 191.307 190.238 192.714 189.94C194.004 189.667 194.561 189.161 194.818 188.027C195.08 186.867 194.362 185.823 192.434 184.565C191.089 183.686 190.735 183.329 190.823 182.939C190.916 182.526 191.139 182.472 192.123 182.628C192.799 182.735 193.678 183.08 194.165 183.43C194.696 183.811 195.13 183.974 195.309 183.859C195.766 183.567 195.516 182.18 194.914 181.674C194.093 180.983 191.777 180.568 190.583 180.897ZM209.263 184.841C207.3 184.89 205.383 187.057 205.204 189.429C205.006 192.043 206.31 193.616 209.071 194.096C211.891 194.586 213.366 193.514 214.053 190.473C214.52 188.407 214.242 187.079 213.157 186.197C212.173 185.398 210.485 184.81 209.263 184.841ZM225.811 188.797C225.181 189.532 225.622 190.15 226.999 190.462L228.242 190.743L227.477 194.124C226.959 196.414 226.787 197.625 226.945 197.878C227.207 198.298 228.462 198.656 228.725 198.385C228.82 198.287 229.305 196.774 229.804 195.022C230.315 193.223 230.854 191.762 231.04 191.667C231.221 191.573 231.717 191.535 232.142 191.581C232.729 191.645 232.968 191.524 233.136 191.078C233.258 190.755 233.229 190.359 233.071 190.199C232.913 190.039 231.292 189.568 229.468 189.153C226.545 188.489 226.111 188.447 225.811 188.797ZM211.069 187.25C211.413 187.543 211.821 188.314 211.974 188.965C212.232 190.055 212.209 190.213 211.679 190.979C211.005 191.955 209.769 192.711 209.097 192.559C208.836 192.5 208.368 192.104 208.057 191.679C207.542 190.976 207.526 190.754 207.875 189.21C208.224 187.666 208.335 187.473 209.102 187.059C210.088 186.528 210.238 186.543 211.069 187.25ZM220.919 189.363C221.428 189.809 221.223 191.076 220.588 191.403C220.352 191.525 219.849 191.517 219.471 191.384C218.855 191.167 218.801 191.031 218.948 190.066C219.078 189.206 219.207 188.986 219.59 188.973C220.378 188.946 220.474 188.974 220.919 189.363ZM166.085 177.632C166.271 178.548 165.621 179.016 164.45 178.813C163.389 178.628 163.093 177.939 163.719 177.108C164.074 176.637 164.339 176.56 165.051 176.721C165.76 176.881 165.97 177.066 166.085 177.632ZM201.716 185.56C201.982 186.545 201.557 187.236 200.739 187.148C199.763 187.043 199.391 186.474 199.624 185.441C199.807 184.631 199.867 184.594 200.688 184.779C201.308 184.919 201.603 185.143 201.716 185.56ZM174.227 182.171C174.161 182.543 173.255 182.583 172.9 182.231C172.633 181.966 173.172 180.172 173.674 179.656C173.875 179.448 174.336 181.547 174.227 182.171ZM250.793 203.232C251.324 203.996 251.137 204.396 249.454 206.094L247.94 207.622L248.526 205.617C248.848 204.514 249.221 203.366 249.356 203.066C249.644 202.422 250.282 202.495 250.793 203.232Z" fill="white"/>
<path fill-rule="evenodd" clip-rule="evenodd" d="M100.346 59.3391C97.6836 60.5795 93.5092 62.7654 91.0695 64.1988L86.6344 66.803L91.5584 67.407C94.2671 67.7392 97.2782 68.731 98.2504 69.6105C99.948 71.1469 100.296 70.9623 107.009 64.9531C110.854 61.511 114 58.3288 114 57.8806C114 56.167 105.121 57.1152 100.346 59.3391ZM1.75464 67.7373C1.75464 68.5037 3.99954 74.3607 6.74353 80.754L11.7324 92.3771L5.26022 99.3076C-0.233312 105.192 -0.896577 106.239 0.873375 106.239C2.01995 106.239 6.45224 104.334 10.7231 102.006L18.4885 97.7721L27.9792 99.8476C33.1982 100.989 37.6583 102.074 37.8893 102.259C38.1203 102.443 31.0284 109.886 22.1295 118.797C6.86226 134.085 6.1118 135 8.83723 135C13.3243 135 18.6851 132.753 30.9839 125.718L42.3281 119.228H49.8495C56.8087 119.228 57.4821 119.058 58.8606 116.954C60.3504 114.68 59.9859 110.878 58.279 110.878C56.4265 110.878 57.5684 109.172 60.8922 106.974C64.3486 104.688 64.446 104.678 75.9665 105.606C83.8218 106.239 89.6901 106.233 94.1613 105.59C104.659 104.079 113.072 98.9068 113.072 93.9636C113.072 91.5273 110.65 87.6047 107.867 85.5339C105.647 83.8815 105.547 83.8945 102.816 86.1935C97.9675 90.2739 87.8153 90.8528 87.2773 87.0795C87.0416 85.4263 87.7791 84.8232 91.5751 83.5624C96.3088 81.9898 99.7439 79.1777 98.7996 77.6497C97.5111 75.564 91.601 73.7669 86.0305 73.7669C78.5425 73.7669 60.817 76.6532 43.5229 80.6872C21.726 85.7714 25.0748 86.3615 14.7946 75.6317C8.72684 69.2978 5.23796 66.3447 3.82608 66.3447C2.60251 66.3447 1.75464 66.9153 1.75464 67.7373ZM33.8522 75.6856L30.2362 78.4058H33.4143C36.957 78.4058 40.7158 76.2292 40.7158 74.1779C40.7158 72.0765 37.8012 72.7167 33.8522 75.6856Z" fill="white"/>
</svg>
