<svg id="Layer_1" data-name="Layer 1" xmlns="http://www.w3.org/2000/svg" xmlns:xlink="http://www.w3.org/1999/xlink" viewBox="0 0 399.97 400"><defs><style>.cls-1{fill:none;}.cls-2{fill:#d0eeec;}.cls-3{fill:#00a698;}.cls-4{clip-path:url(#clip-path);}.cls-5{fill:#1f2d53;}.cls-6{fill:#111236;}.cls-7{fill:#567dbe;}.cls-8{clip-path:url(#clip-path-2);}.cls-9{fill:#73cec6;}.cls-10{fill:#ffc471;}.cls-11{fill:#b0cace;}.cls-12{fill:#008d85;}.cls-13{fill:#084eb2;}.cls-14{fill:#9dc0f2;}.cls-15{fill:#8f90a0;}.cls-16{fill:#042c70;}.cls-17{fill:#fff;}.cls-18{fill:#192751;}.cls-19{fill:#cddff8;}.cls-20{fill:#7ea8eb;}.cls-21{fill:#6d9feb;}.cls-22{fill:#e5eefb;}.cls-23{fill:#f1f2f8;}.cls-24{fill:#c5e2e6;}.cls-25{fill:#94b6eb;}.cls-26{fill:#c2d4f1;}.cls-27{fill:#779fe5;}.cls-28{fill:#084aad;}.cls-29{fill:#0e1035;}.cls-30{fill:#007b81;}.cls-31{fill:#0644ad;}.cls-32{fill:#03266d;}.cls-33{fill:#02216a;}.cls-34{fill:#6593e5;}.cls-35{fill:#03256a;}.cls-36{fill:#021f67;}.cls-37{fill:#608bdf;}.cls-38{fill:#0641a8;}.cls-39{fill:#a5c3f1;}.cls-40{fill:#dce9fa;}</style><clipPath id="clip-path"><path class="cls-1" d="M43.84,173.18c0-63.25-16.61-118-4.07-143.61C72.41-37,168.33,8.38,229.34,17.64,286.59,26.33,351,25.45,368.53,83.92c8.34,27.8,58.61,59.2,37.12,118.65-29,80.34-143,159.29-227.45,146.47S43.84,267.53,43.84,173.18"/></clipPath><clipPath id="clip-path-2"><path class="cls-1" d="M198.12,156.54c1.15,26.33-18.83,48.59-44.62,49.71s-47.62-19.31-48.76-45.64S123.57,112,149.35,110.9s47.62,19.31,48.77,45.64"/></clipPath></defs><title>SDCRT-1169_HelpHome</title><path class="cls-2" d="M45.76,166.85A158.3,158.3,0,1,1,178.52,347.12,158.31,158.31,0,0,1,45.76,166.85"/><path class="cls-3" d="M311.28,307A158.3,158.3,0,1,1,93.22,77.49L311.28,307"/><g class="cls-4"><path class="cls-5" d="M237,281.07,83.5,306.48C82.41,305.7,43.27,59.73,42.68,59.83L196.2,34.42a22,22,0,0,1,25.18,18l33.67,203.44a22,22,0,0,1-18,25.18"/><path class="cls-6" d="M56.16,57.89l145.34-24a22.2,22.2,0,0,0-5,.23L43,59.48c.6-.09,39.74,245.87,40.83,246.66l13-2.16C93.88,291.1,56.74,57.8,56.16,57.89"/><path class="cls-7" d="M151.38,110.86c-.67,0-1.35,0-2,0-25.78,1.13-45.76,23.38-44.61,49.71a47.67,47.67,0,0,0,33.87,43.85l7.23-10.09a10.81,10.81,0,0,1-1.05-4.09c.16-3.19.74-3.52,2-7.05s2.26-2.79,5-4.1a5,5,0,0,1,2-.64c.78,0,1.3.47,2.82.87l33.77-47.1a46.59,46.59,0,0,0-39-21.4"/><g class="cls-8"><path class="cls-9" d="M158.88,144l-.9-2.45-1.62-.63s-1.65,1-1.52,1.66.56,3.66.56,3.66a6.29,6.29,0,0,1,.18,1.88c-.05,1.09,1.66,1.61,2,1.4s1.37-.46,1.65-1,1-1.83.7-2.12a3.73,3.73,0,0,1-.84-1A12.16,12.16,0,0,1,158.88,144Z"/><path class="cls-9" d="M153.65,144.94s-2-.51-2.39-.2-1.19.16-1.15,1.15a2.38,2.38,0,0,0,.68,1.76,8.59,8.59,0,0,0,2.11.6l1.34-1.15Z"/><path class="cls-9" d="M157.67,152.82l-4.79-.39-1.8,2.07-.22,1.6.89,2.15,2.17-.2s1.22.45,1.15,1.15a36.21,36.21,0,0,0,.2,4.66c.15,1.19,1.44,3.32,1.94,3.4s3.38.05,3.86-.37,3.54-1,3.81-1.66a12.91,12.91,0,0,1,1-1.63s2.92,3.15,3.33,3.34,2.76-.62,3.05-.63,4-.18,4.2.51,2.89.07,2.81-1.72.2-2.29.05-3.48a2.36,2.36,0,0,1,.61-1.91s3.41.54,4,.52,1.87,4,1.87,4,2.72,3.07,2.83,3.36,4.38.21,4.38.21l2.31-4.18s-.6-4.55-.72-5-.16-6-.16-6l8.25-4.63,3-1.23s-7.2-16.89-18.14-23.87l-7.47-.18s-2,4.47-2.28,4.68l-2.8,2s-2.16.59-2.18.09-2-1.5-2-1.5-4.83.9-5.22,1.12-4.18,4.36-4.35,5.06-.17,5.28-.17,5.28,6.85-.2,7.14-.41a16.34,16.34,0,0,0,1.92-1.58,21.79,21.79,0,0,1,3.2-1.83l4.12,3.21-1,3.22-2.06,3-2.26.6-7.84.44s-.63,3.81-.78,4.81-4.1,1.77-4.1,1.77Z"/><path class="cls-9" d="M145.35,132.37s-3.29-.25-3.68.06a33.19,33.19,0,0,0-2.06,3,5.3,5.3,0,0,0,0,3c.55,1.07,3.4,2.73,3.58,2.33s1.17-.55,2.42-1.6a27.49,27.49,0,0,1,2.31-1.89c.77-.53,2.74-.91,2.9-1.72s.44-1.51-.4-2.36S145.35,132.37,145.35,132.37Z"/><path class="cls-9" d="M133.54,128.51l-.72-.66a17.19,17.19,0,0,0-2.71,1.71c-.28.4-1.67.56-2.26.59s-1.85-1.41-2.4-2.48-.37-1.68-1.66-1.72a4.53,4.53,0,0,0-2,.09c-1.18.25-1,.74-2,.08a14.43,14.43,0,0,1-2.58-2.07,18.06,18.06,0,0,1-2.42-3S99.76,133.66,101,154.89l2.7,7.24s1.68-.27,1.52-1.56-.3-2.37.08-2.88a17.86,17.86,0,0,1,3.1-1.93l2-.68a23.47,23.47,0,0,0,3.77-.17c.68-.22,2.16-.49,2.43-1.29s1.06-3,1.46-3.05,6.09.53,6.09.53,7.23,1.77,7-1.2.25-3.49-.43-5.35,1.84-5.65,1.84-5.65l3.37-4.82s.41-2.21,0-2.59S133.41,127.72,133.54,128.51Z"/><path class="cls-9" d="M103.76,163.92s-.69.23-.72,1.82.73,19.06,27.46,36.69a5.27,5.27,0,0,0,.51-1.91c-.12-.49.14-3.58-1.1-4.72s-2.14-1.3-3.59-2.43-2.13-1.1-2.19-2.39a8.72,8.72,0,0,1,1.2-4.43,54.52,54.52,0,0,1,5.49-4s1.67-3,1.53-3.85,0-2.68-.16-3.57-.75-5.83-1.57-6.3-3.24-5.92-4.51-5.47-5.19,1.92-6.37,2.17a59.61,59.61,0,0,1-6.12,1.06c-1.29.06-6.18-.42-6.18-.42Z"/><path class="cls-9" d="M169.2,175.49c-.93-.86-4.25-1.8-4.25-1.8l-4.38,2.17s1,1.95,0,2.69-.42,1.61-3.44.94-2.65-1.67-5.38-.36-3.76.56-5,4.1-1.82,3.86-2,7.05,4.65,11,4.88,11.72,7.1.88,7.1.88,5.56-.14,5.95-.36,5.27,0,4.52.9a42.26,42.26,0,0,0-2.5,4.29l4.78.19s18.49-2.5,26.2-12.58c0,0-4.5-5.18-4.92-5.85s-4.15-3.8-5.44-3.84-6.24-4-6.86-4.58-1.56-3.71-1.56-3.71l-7.74-1.85"/></g><path class="cls-10" d="M86.4,88a20.22,20.22,0,0,1,3.18-.85,5.43,5.43,0,0,1,3.86.39,3.6,3.6,0,0,1,1.65,2.52,3.9,3.9,0,0,1-.48,3,5.47,5.47,0,0,1-3.72,2.18,6.39,6.39,0,0,1-1.38.14l1,5.22-1.68.31Zm2.86,6a5.88,5.88,0,0,0,1.42-.12c2-.38,3.08-1.6,2.74-3.4s-1.69-2.32-3.55-2a6.59,6.59,0,0,0-1.56.44Z"/><path class="cls-10" d="M101.52,94.25l-.58,4.35-1.74.33,2-13.87,2-.38,6.89,12.2-1.8.34-2.16-3.84Zm4-2.12-2-3.51c-.45-.8-.79-1.53-1.12-2.25h0c0,.81-.11,1.65-.21,2.49l-.57,4Z"/><path class="cls-10" d="M114.11,94a6.18,6.18,0,0,0,3.18.29c1.72-.33,2.56-1.42,2.31-2.74s-1.06-1.78-2.94-2.13c-2.27-.35-3.79-1.21-4.14-3.05-.38-2,1-3.85,3.56-4.33a6,6,0,0,1,3,.1l-.21,1.46a5.3,5.3,0,0,0-2.59-.16c-1.78.34-2.26,1.53-2.09,2.42.23,1.22,1.13,1.67,3.06,2,2.37.43,3.69,1.29,4,3.2s-.79,4-3.87,4.61A6.74,6.74,0,0,1,114,95.5Z"/><path class="cls-10" d="M126.36,91.72a6,6,0,0,0,3.17.28c1.72-.32,2.56-1.42,2.31-2.73s-1.05-1.79-2.94-2.13c-2.27-.36-3.79-1.22-4.13-3-.38-2,1-3.86,3.55-4.33a6,6,0,0,1,3,.1l-.21,1.46a5.17,5.17,0,0,0-2.59-.16c-1.78.33-2.25,1.53-2.09,2.41.23,1.22,1.14,1.67,3.07,2,2.36.44,3.68,1.3,4,3.21s-.79,4-3.86,4.61a6.94,6.94,0,0,1-3.48-.21Z"/><path class="cls-10" d="M136.8,78.55a20.24,20.24,0,0,1,3.19-.86,5.44,5.44,0,0,1,3.85.4,3.56,3.56,0,0,1,1.66,2.51,3.93,3.93,0,0,1-.49,3,5.51,5.51,0,0,1-3.71,2.18,5.82,5.82,0,0,1-1.38.13l1,5.22-1.68.32Zm2.86,6a5.44,5.44,0,0,0,1.42-.13c2-.38,3.08-1.59,2.75-3.39s-1.7-2.33-3.56-2a7.64,7.64,0,0,0-1.56.43Z"/><path class="cls-10" d="M162.11,80.25c.84,4.49-1.44,7.38-4.77,8s-6.36-1.57-7.1-5.51c-.77-4.14,1.29-7.33,4.77-8S161.38,76.39,162.11,80.25ZM152,82.36c.52,2.79,2.5,5,5.15,4.5s3.72-3.24,3.16-6.19c-.48-2.6-2.34-5-5.15-4.52S151.5,79.5,152,82.36Z"/><path class="cls-10" d="M165.84,73.13a17.55,17.55,0,0,1,3.18-.88,5.42,5.42,0,0,1,4,.36,3.34,3.34,0,0,1,1.49,2.28,3.49,3.49,0,0,1-1.84,3.79l0,.06a3.28,3.28,0,0,1,2.4,2.27,20.75,20.75,0,0,0,1.68,3.39l-1.74.33a18,18,0,0,1-1.46-3c-.72-1.72-1.54-2.27-3.08-2l-1.59.3,1.06,5.64-1.68.32Zm2.79,5.62,1.72-.32c1.8-.34,2.76-1.54,2.48-3-.31-1.68-1.67-2.19-3.45-1.87a6.93,6.93,0,0,0-1.64.46Z"/><polygon class="cls-10" points="181.84 71.43 177.87 72.17 177.6 70.74 187.26 68.94 187.52 70.37 183.54 71.11 185.71 82.72 184.01 83.04 181.84 71.43"/><polyline class="cls-11" points="350.89 229.99 286.79 281.25 290.23 284.87 351.3 235.71 350.89 229.99"/><path class="cls-12" d="M286.79,281.25l-22.1,17.67.14.17-64.12,51.28c2.92-.08,5.84-.25,8.8-.51l80.72-65-3.44-3.62"/><path class="cls-13" d="M395.26,194.5,335.67,121a31.83,31.83,0,0,0-44.61-5L80.14,284.68,159.55,383,395.26,194.5"/><path class="cls-14" d="M138.7,232.81c-1.31-2.45-2.62-4.9-3.91-7.36-1.41,2.72-1.35,5.27,1.71,7a12.75,12.75,0,0,0,2.2.33"/><path class="cls-15" d="M381.7,177.63l-.07.06,3.08,3.8.13-.1q-1.62-1.84-3.14-3.76"/><polyline class="cls-16" points="381.63 177.69 308.46 236.21 256.82 277.5 256.87 277.57 251.22 282.08 254.28 285.89 259.75 281.52 259.7 281.45 311.35 240.15 384.71 181.49 381.63 177.69"/><path class="cls-17" d="M374.41,132.82l-.36.31a17.58,17.58,0,0,1-24.65-2.7,17.39,17.39,0,0,1,2.68-24.54l.38-.29-24-29.72a4.89,4.89,0,0,0-6.86-.75l-81.29,65-57.61,46.08-.16-.2-.36.61L110.5,244a4.89,4.89,0,0,0-.78,6.85l23.73,29.92.36-.31a17.5,17.5,0,0,1,21.75,27.42l-.38.29,21.55,27.17a4.85,4.85,0,0,0,6.83.78l19.27-15.41c2.84-2.15,5.72-4.4,8.37-6.6l45.67-36.51-.05-.06,51.64-41.31,87-69.55a4.83,4.83,0,0,0,.75-6.83l-21.77-27"/><path class="cls-14" d="M374.05,133.13a17.58,17.58,0,0,1-24.65-2.7,17.39,17.39,0,0,1,2.68-24.54l.38-.29-8.7-10.79L124.84,269.89l8.61,10.85.36-.31a17.5,17.5,0,0,1,21.75,27.42l-.38.29,21.55,27.17a4.85,4.85,0,0,0,6.83.78l19.27-15.41c2.84-2.15,5.72-4.4,8.37-6.6l45.67-36.51-.05-.06,51.64-41.31,87-69.55a4.83,4.83,0,0,0,.75-6.83l-21.77-27-.36.31"/><path class="cls-18" d="M111.06,242.88a7.67,7.67,0,0,0-2.19,3.06l.54-.74a4.67,4.67,0,0,1,.36-.51l1.29-1.81"/><path class="cls-19" d="M109.77,244.69a4.67,4.67,0,0,0-.36.51l.36-.51"/><path class="cls-19" d="M395.49,166.61l-.06,0,.06,0m-21.08-33.79-.36.31-.23.18.23-.18.36-.31,21.77,27a5.57,5.57,0,0,1,.52.78,5.57,5.57,0,0,0-.52-.78l-21.77-27m-25.15-2.56.14.17A17.54,17.54,0,0,0,363.09,137a17.54,17.54,0,0,1-13.69-6.54l-.14-.17"/><path class="cls-20" d="M342.83,208a.91.91,0,0,1-.69-.33l-6.37-7.85a.88.88,0,1,1,1.37-1.12l6.37,7.86a.89.89,0,0,1-.68,1.44m-13.05-16.09a.87.87,0,0,1-.69-.33l-6.68-8.23a.89.89,0,0,1,.13-1.25.88.88,0,0,1,.55-.19.89.89,0,0,1,.69.32l6.68,8.24a.88.88,0,0,1-.13,1.24.89.89,0,0,1-.55.2m22-4.38L340.9,173.91l26.82-21.45,10.91,13.65-26.82,21.45m-5.54-63-32.53,45.37L317.1,174a.88.88,0,0,1-.13,1.24.89.89,0,0,1-.55.2.87.87,0,0,1-.69-.33l-3.05-3.76L295,196.1l-38.53,53.74.07,0-14.66,20.44,9.39,11.75,5.65-4.51-.05-.06,51.64-41.31,87-69.55.06,0a4.87,4.87,0,0,0,1.21-6,5.57,5.57,0,0,0-.52-.78l-21.77-27-.36.31-.23.18a17.58,17.58,0,0,1-24.42-2.88l-.14-.17a17.35,17.35,0,0,1-3-5.74"/><path class="cls-13" d="M342.83,208a.91.91,0,0,1-.69-.33l-6.37-7.85a.88.88,0,1,1,1.37-1.12l6.37,7.86a.89.89,0,0,1-.68,1.44m-13.05-16.09a.87.87,0,0,1-.69-.33l-6.68-8.23a.88.88,0,1,1,1.37-1.12l6.68,8.24a.88.88,0,0,1-.13,1.24.89.89,0,0,1-.55.2m-13.36-16.47a.87.87,0,0,1-.69-.33l-6.68-8.23a.88.88,0,1,1,1.37-1.11L317.1,174a.88.88,0,0,1-.13,1.24.89.89,0,0,1-.55.2M303.06,159a.87.87,0,0,1-.69-.33l-6.68-8.23a.88.88,0,1,1,1.37-1.11l6.68,8.23a.88.88,0,0,1-.13,1.24.83.83,0,0,1-.55.2M289.7,142.53a.89.89,0,0,1-.69-.32L282.33,134a.88.88,0,1,1,1.37-1.11l6.68,8.23a.89.89,0,0,1-.13,1.25.88.88,0,0,1-.55.19m-13.37-16.47a.88.88,0,0,1-.68-.32L269,117.5a.88.88,0,0,1,1.37-1.11l6.68,8.23a.88.88,0,0,1-.69,1.44"/><polyline class="cls-19" points="249.03 155.85 236.69 165.74 233.74 161.37 246.08 151.48 249.03 155.85"/><polyline class="cls-19" points="283.22 184.49 178.1 268.55 167.19 254.9 272.31 170.84 283.22 184.49"/><polyline class="cls-21" points="221 178.99 151.15 234.85 146.28 228.76 216.13 172.9 221 178.99"/><polyline class="cls-21" points="261.36 146.72 233.04 169.36 228.31 163.45 256.63 140.8 261.36 146.72"/><polyline class="cls-21" points="323.2 97.26 294.88 119.91 290.15 113.99 318.47 91.34 323.2 97.26"/><polyline class="cls-19" points="262.04 238.4 196.14 291.1 185.23 277.46 251.13 224.75 262.04 238.4"/><polyline class="cls-22" points="367.72 152.46 340.9 173.91 351.81 187.56 378.63 166.11 367.72 152.46"/><path class="cls-14" d="M126.77,236.26q-2.89-3-5.76-6c-.62,3,.13,5.44,3.55,6.3A12.78,12.78,0,0,0,126.77,236.26Z"/><path class="cls-23" d="M326.59,76.17l-.26.39a17.6,17.6,0,0,1-24.46,4.09,17.41,17.41,0,0,1-4.07-24.36l.29-.38L267,33.79a4.9,4.9,0,0,0-6.81,1.13l-60.65,84.59-43,60-.2-.15-.18.68-53.51,74.63a4.9,4.9,0,0,0,1.11,6.81l30.94,22.37.27-.39a17.41,17.41,0,0,1,24.37-4,17.59,17.59,0,0,1,4,24.48l-.29.37,28.11,20.33a4.84,4.84,0,0,0,6.78-1.11l14.38-20c2.15-2.83,4.31-5.78,6.27-8.62l34.07-47.51-.06-.05,38.53-53.74L356,103a4.85,4.85,0,0,0-1.13-6.78L326.59,76.17"/><path class="cls-23" d="M290.65,50.43l-.09.12,7.53,5.36-.29.38a17.45,17.45,0,0,0-3.06,7.45c1.29.93,2.55,1.87,3.81,2.84a17.28,17.28,0,0,1,3.1-7.74c.09-.13.19-.26.29-.38l-11.29-8"/><path class="cls-24" d="M294.74,63.74a17.4,17.4,0,0,0,9.62,18.38,17.38,17.38,0,0,1-5.81-15.54c-1.26-1-2.52-1.91-3.81-2.84"/><path class="cls-23" d="M331.24,79.29l.35.43,23.27,16.54a4.82,4.82,0,0,1,2,4A4.73,4.73,0,0,1,356,103l-10.34,14.43a16.94,16.94,0,0,0-.12,2,17.28,17.28,0,0,0,.74,5l13.57-18.93a4.85,4.85,0,0,0-1.13-6.78L331.24,79.29"/><polyline class="cls-23" points="330.44 78.72 330.36 78.84 331.59 79.72 331.24 79.29 330.44 78.72"/><path class="cls-25" d="M345.53,119.48a17.28,17.28,0,0,0,.74,5,17.28,17.28,0,0,1-.74-5"/><path class="cls-26" d="M345.65,117.47h0a16.94,16.94,0,0,0-.12,2,16.94,16.94,0,0,1,.12-2"/><path class="cls-27" d="M309.66,167.67l-18.55,25.88-30.7,42.81,1.63,2-7.25,5.8-2.21,3.09.06.05-13.8,19.25,3,3.74,14.66-20.44-.07,0L295,196.1l17.73-24.72-3-3.71m36-50.2-34.92,48.71,3,3.71,32.53-45.37a17.28,17.28,0,0,1-.74-5,16.94,16.94,0,0,1,.12-2"/><polyline class="cls-28" points="310.73 166.18 309.66 167.67 312.68 171.38 313.74 169.89 310.73 166.18"/><polyline class="cls-26" points="260.41 236.36 254.79 244.2 262.04 238.4 260.41 236.36"/><path class="cls-14" d="M326.33,76.56a17.6,17.6,0,0,1-24.46,4.09,17.41,17.41,0,0,1-4.07-24.36l.29-.38-11.29-8L123.47,275.7l11.22,8.11.27-.39a17.41,17.41,0,0,1,24.37-4,17.59,17.59,0,0,1,4,24.48l-.29.37,28.11,20.33a4.84,4.84,0,0,0,6.78-1.11l14.38-20c2.15-2.83,4.31-5.78,6.27-8.62l34.07-47.51-.06-.05,38.53-53.74L356,103a4.85,4.85,0,0,0-1.13-6.78L326.59,76.17l-.26.39"/><path class="cls-13" d="M316.32,157.15a.86.86,0,0,1-.51-.16l-8.26-5.84a.88.88,0,0,1,1-1.44l8.26,5.83a.89.89,0,0,1-.51,1.61Zm-16.92-12a.93.93,0,0,1-.51-.16l-8.66-6.12a.87.87,0,0,1-.21-1.23.88.88,0,0,1,1.23-.22l8.66,6.12a.89.89,0,0,1-.51,1.61ZM282.08,133a.86.86,0,0,1-.51-.16l-8.66-6.12a.88.88,0,0,1-.22-1.23.89.89,0,0,1,1.24-.21l8.66,6.12a.88.88,0,0,1,.21,1.23A.89.89,0,0,1,282.08,133Zm-17.33-12.23a.86.86,0,0,1-.5-.17l-8.67-6.11a.89.89,0,0,1,1-1.45l8.67,6.12a.89.89,0,0,1,.21,1.23A.88.88,0,0,1,264.75,120.73Zm-17.32-12.24a.9.9,0,0,1-.51-.16l-8.66-6.12a.88.88,0,1,1,1-1.44l8.66,6.12a.88.88,0,0,1,.22,1.23A.91.91,0,0,1,247.43,108.49ZM230.11,96.26a1,1,0,0,1-.51-.16L220.94,90a.89.89,0,0,1,1-1.45l8.66,6.12a.87.87,0,0,1,.21,1.23A.86.86,0,0,1,230.11,96.26Z"/><polygon class="cls-19" points="212.13 132.29 202.94 145.15 198.91 141.75 208.11 128.89 212.13 132.29"/><polyline class="cls-19" points="252.8 150.6 174.38 259.99 160.18 249.81 238.6 140.42 252.8 150.6"/><rect class="cls-21" x="117.47" y="192.33" width="89.44" height="7.8" transform="translate(-91.78 213.71) rotate(-54.36)"/><rect class="cls-21" x="189.75" y="128.9" width="36.26" height="7.57" transform="translate(-21.08 224.33) rotate(-54.36)"/><rect class="cls-21" x="235.9" y="64.54" width="36.26" height="7.57" transform="translate(50.48 234.97) rotate(-54.36)"/><polyline class="cls-19" points="247.02 208.23 197.85 276.81 183.65 266.63 232.81 198.05 247.02 208.23"/><rect class="cls-17" x="305.4" y="107.2" width="34.34" height="17.47" transform="translate(40.39 310.53) rotate(-54.36)"/><polyline class="cls-18" points="106.56 263.47 91.82 275.26 91.83 275.33 106.61 263.51 106.56 263.47"/><polyline class="cls-29" points="91.82 275.26 83.23 282.13 83.27 282.17 91.83 275.33 91.82 275.26"/><path class="cls-30" d="M264.69,298.92l-64.34,51.46h.36l64.12-51.28-.14-.17"/><path class="cls-31" d="M106.61,263.51,91.83,275.33l-8.56,6.84,37.32,46.67A157.69,157.69,0,0,0,178.2,349a123,123,0,0,0,16.63,1.36H197c1.12,0,2.24,0,3.38,0l64.34-51.46-10.41-13L214.09,318c-2.65,2.2-5.53,4.45-8.37,6.6L186.45,340a4.85,4.85,0,0,1-6.83-.78l-21.55-27.17.15-.12-3-3.83.38-.29a17.57,17.57,0,0,0,4.51-22,17.36,17.36,0,0,0-12.49-5.28,17.08,17.08,0,0,0-2.94.25,17.36,17.36,0,0,0-5.83,5.16l-.27.39-3.74-2.7-.11.15-28.08-20.3"/><path class="cls-32" d="M251.22,282.08l-14.64,11.71L211.2,314.08l-2,1.66-7.41,10.33a4.85,4.85,0,0,1-6.79,1.11l-.14-.11-11.28,9-.13.1a4.85,4.85,0,0,1-6.7-.88L158.22,312l-.15.12,21.55,27.17a4.85,4.85,0,0,0,6.83.78l19.27-15.41c2.84-2.15,5.72-4.4,8.37-6.6l40.19-32.13-3.06-3.82"/><path class="cls-32" d="M153,278.69a17.47,17.47,0,0,0-8.32,2.12,17.08,17.08,0,0,1,2.94-.25,17.36,17.36,0,0,1,12.49,5.28,16.88,16.88,0,0,0-1.72-2.62,17.3,17.3,0,0,0-5.39-4.53"/><path class="cls-20" d="M155.18,308.14h0l21.55,27.17a4.85,4.85,0,0,0,6.7.88,4.85,4.85,0,0,1-6.7-.88l-21.55-27.17m96-26.06-14.64,11.71,14.64-11.71h0"/><path class="cls-33" d="M194.84,327.07l-11.28,9,11.28-9h0m41.74-33.28L211.2,314.08c-.66.55-1.33,1.1-2,1.65h0l2-1.66,25.38-20.29"/><polyline class="cls-33" points="183.56 336.09 183.43 336.19 183.56 336.09"/><path class="cls-34" d="M153,278.69h0a17.57,17.57,0,0,1,9.19,15.43,17.55,17.55,0,0,1-6.59,13.73l-.38.29,21.55,27.17a4.85,4.85,0,0,0,6.7.88l.13-.1,11.28-9-2.51-1.81a4.87,4.87,0,0,1-1.19-.63L163,304.3l.29-.37a17.61,17.61,0,0,0-2.74-23.49,17.32,17.32,0,0,0-7.6-1.75m88.85-8.36L222.42,297.4c-2,2.84-4.12,5.78-6.28,8.62l-7,9.71c.69-.55,1.36-1.1,2-1.65l25.38-20.29,14.64-11.71-9.39-11.75"/><path class="cls-26" d="M165.37,217.25a33.6,33.6,0,0,0-5.41,3.52l-53.4,42.7,0,0,28.08,20.3.11-.15-.11.15-11.22-8.11,41.9-58.45"/><path class="cls-35" d="M209.18,315.74c-2.07,1.66-4.22,3.33-6.35,4.94l-8,6.39.14.11a4.85,4.85,0,0,0,6.79-1.11l7.41-10.33"/><path class="cls-36" d="M209.18,315.73c-2.07,1.67-4.22,3.34-6.35,4.95l-8,6.39h0l8-6.39c2.13-1.61,4.28-3.28,6.35-4.94h0"/><path class="cls-37" d="M238.84,266.59l-20.27,28.26c-2,2.84-4.12,5.79-6.27,8.62l-14.38,20a4.82,4.82,0,0,1-3.94,2,4.7,4.7,0,0,1-1.65-.29l2.51,1.81,8-6.39c2.13-1.61,4.28-3.28,6.35-4.95l7-9.71c2.16-2.84,4.32-5.78,6.28-8.62l19.41-27.07-3-3.74"/><path class="cls-38" d="M144.64,280.81a17.38,17.38,0,0,0-7.94,3.57l-.36.31-1.2-1.51-.18.24-.16.24,3.74,2.7.27-.39a17.36,17.36,0,0,1,5.83-5.16"/><path class="cls-35" d="M145.09,276.62a17.33,17.33,0,0,0-10,6.56l1.2,1.51.36-.31a17.38,17.38,0,0,1,7.94-3.57,17.47,17.47,0,0,1,8.32-2.12,17.45,17.45,0,0,0-7.87-2.07"/><path class="cls-37" d="M149.13,276.14a17.17,17.17,0,0,0-4,.48,17.45,17.45,0,0,1,7.87,2.07h0a17.32,17.32,0,0,1,7.6,1.75c-.39-.34-.81-.67-1.25-1a17.38,17.38,0,0,0-10.2-3.31"/><path class="cls-20" d="M180.51,213.58a33,33,0,0,0-15.14,3.67l-41.9,58.45,11.22,8.11.11-.15.16-.24a17.5,17.5,0,0,1,28.36,20.51l-.29.37,28.11,20.33a4.84,4.84,0,0,0,6.78-1.11l14.38-20c2.15-2.83,4.31-5.78,6.27-8.62l20.27-28.26L221.09,244.4l-23.24,32.41-14.2-10.18,26.1-36.41-3.43-4.29a33.29,33.29,0,0,0-4.32-4.47L174.38,260l-14.2-10.18L185.84,214a33.91,33.91,0,0,0-5.33-.43"/><path class="cls-39" d="M185.84,214l-25.66,35.8L174.38,260,202,221.46A33,33,0,0,0,185.84,214"/><polyline class="cls-39" points="209.75 230.22 183.65 266.63 197.85 276.81 221.09 244.4 209.75 230.22"/><path class="cls-21" d="M261.54,301.61,203,228.45a33.08,33.08,0,0,0-46.36-5.16L70.06,292.87l89,90.7Z"/><path class="cls-17" d="M134.35,257.6c-.76-.91-.77-.9-.79-.88-.83.5-4.37,4.73.91,11.34l12.23,15.29L139,321.15c-.47,2.87-1,4.92,0,7.21.92,2,2.32,3.41,5,2.72,1.53-.39,3-2.54,3.95-4.33l12.09-26.52,13,16.2-3.74,9.24,6.43,8.12c.3.38.54-.21.67-.68L183,318.48Z"/><path class="cls-40" d="M134.3,257.63c-.72-.94-.7-.95-.68-1,.67-.7,5.58-3.23,10.86,3.38l12.24,15.29,38.56.78c2.91.17,5,.07,7,1.6,1.73,1.33,2.81,3,1.54,5.5-.71,1.41-3.14,2.39-5.09,2.91l-28.53,6,13,16.2,9.37-1.25,6.5,8.06c.27.34-.32.49-.8.51L183,318.48Z"/></g></svg>