<svg width="114" height="78" viewBox="0 0 114 78" fill="none" xmlns="http://www.w3.org/2000/svg">
<path fill-rule="evenodd" clip-rule="evenodd" d="M100.346 2.3391C97.6836 3.57954 93.5092 5.76537 91.0695 7.19878L86.6344 9.80305L91.5584 10.407C94.2671 10.7392 97.2782 11.731 98.2504 12.6105C99.948 14.1469 100.296 13.9623 107.009 7.95306C110.854 4.51102 114 1.32876 114 0.880642C114 -0.832956 105.121 0.115227 100.346 2.3391ZM1.75464 10.7373C1.75464 11.5037 3.99954 17.3607 6.74353 23.754L11.7324 35.3771L5.26022 42.3076C-0.233312 48.1916 -0.896577 49.239 0.873375 49.239C2.01995 49.239 6.45224 47.3343 10.7231 45.0056L18.4885 40.7721L27.9792 42.8476C33.1982 43.9887 37.6583 45.0742 37.8893 45.2589C38.1203 45.4435 31.0284 52.8861 22.1295 61.7974C6.86226 77.0852 6.1118 78 8.83723 78C13.3243 78 18.6851 75.7529 30.9839 68.7176L42.3281 62.2278H49.8495C56.8087 62.2278 57.4821 62.0581 58.8606 59.9539C60.3504 57.6799 59.9859 53.8779 58.279 53.8779C56.4265 53.8779 57.5684 52.1717 60.8922 49.9738C64.3486 47.6878 64.446 47.6785 75.9665 48.6063C83.8218 49.239 89.6901 49.2334 94.1613 48.5896C104.659 47.0792 113.072 41.9068 113.072 36.9636C113.072 34.5273 110.65 30.6047 107.867 28.5339C105.647 26.8815 105.547 26.8945 102.816 29.1935C97.9675 33.2739 87.8153 33.8528 87.2773 30.0795C87.0416 28.4263 87.7791 27.8232 91.5751 26.5624C96.3088 24.9898 99.7439 22.1777 98.7996 20.6497C97.5111 18.564 91.601 16.7669 86.0305 16.7669C78.5425 16.7669 60.817 19.6532 43.5229 23.6872C21.726 28.7714 25.0748 29.3615 14.7946 18.6317C8.72684 12.2978 5.23796 9.34473 3.82608 9.34473C2.60251 9.34473 1.75464 9.91531 1.75464 10.7373ZM33.8522 18.6856L30.2362 21.4058H33.4143C36.957 21.4058 40.7158 19.2292 40.7158 17.1779C40.7158 15.0765 37.8012 15.7167 33.8522 18.6856Z" fill="white"/>
</svg>
