<svg width="253" height="257" viewBox="0 0 253 257" fill="none" xmlns="http://www.w3.org/2000/svg">
<path fill-rule="evenodd" clip-rule="evenodd" d="M146.019 2.04924C145.454 1.97826 143.666 1.74756 142.045 1.53673C133.585 0.436488 123.112 0.397391 113.836 1.4313C102.456 2.69924 90.1433 5.81402 79.5517 10.1031C72.6638 12.8925 68.9063 14.8742 60.4109 20.1971C48.788 27.4795 40.953 34.0382 32.7023 43.3918C20.9783 56.683 10.5543 75.0654 6.08978 90.3233C4.67908 95.1441 1.68718 109.171 1.02652 114.061C-0.772751 127.378 0.238316 144.552 3.65667 158.745C7.43962 174.45 12.9054 186.664 22.7186 201.341C29.8287 211.975 35.6466 218.432 45.6149 226.753C55.3416 234.872 63.6484 240.136 74.4514 245.027C82.4065 248.628 89.2742 250.913 98.2552 252.946C112.445 256.158 125.417 256.878 139.82 255.252C155.037 253.534 171.64 248.469 183.582 241.902C193.962 236.193 203.003 229.959 209.764 223.847C230.596 205.013 244.814 180.102 250.179 153.033C254.133 133.087 253.436 113.586 248.064 93.8422C244.655 81.3112 240.676 72.1229 233.847 61.0146C228.994 53.1212 224.311 46.7893 219.319 41.374C205.017 25.8586 187.978 14.6522 167.751 7.45926C164.526 6.31225 148.819 2.4021 146.019 2.04924ZM162.734 11.5601C202.56 23.6293 233.909 57.4137 243.992 99.1277C247.551 113.855 248.265 127.761 246.296 144.005C245.706 148.881 242.589 162.296 240.934 167.09C231.291 195.016 213.699 217.289 189.255 232.519C168.947 245.172 145.351 251.502 121.734 250.635C109.223 250.175 96.2395 247.602 84.1045 243.179C60.3161 234.507 39.1514 217.492 25.1843 195.811C6.50899 166.822 0.859542 132.079 9.37354 98.58C14.5267 78.3049 23.3292 61.7908 37.2359 46.3093C40.0122 43.2186 46.7243 36.6828 49.6065 34.2638C53.9576 30.6114 64.1944 23.8233 71.3965 19.8141C79.7006 15.1913 94.0385 10.1824 104.797 8.14495C117.301 5.77753 131.252 5.38094 142.774 7.06544C146.868 7.66421 158.583 10.3022 162.734 11.5601ZM151.783 59.3C150.84 59.6767 149.82 59.9289 149.516 59.8607C148.555 59.6444 147.015 60.97 142.527 65.8793L138.161 70.6538L119.709 66.4816C109.56 64.1867 93.2193 60.572 83.3956 58.4486L65.5345 54.5879L63.5723 55.9725L61.6101 57.357L48.9884 113.219L36.367 169.081L37.5671 171.223L38.7676 173.365L78.3031 182.537L117.839 191.71L122.549 196.118C128.041 201.258 132.202 204.776 134.304 206.058C137.633 208.089 140.753 208.437 145.385 207.296C149.277 206.338 150.361 205.552 155.717 199.81C177.221 176.758 208.581 142.174 214.034 135.499C216.753 132.17 216.815 132.067 217.44 129.856C218.573 125.85 218.175 121.443 216.381 118.117C214.748 115.088 210.262 110.693 181.575 84.0184C161.033 64.918 155.113 59.5257 153.987 58.8908C153.643 58.6968 152.988 58.8185 151.783 59.3ZM156.056 67.5913C158.085 69.4308 164.202 75.1002 169.651 80.1899C204.247 112.51 202.494 110.831 203.741 112.835C204.198 113.57 204.755 114.914 204.978 115.821C205.343 117.305 205.326 117.774 204.817 120.464L204.25 123.456L182.048 147.804C141.966 191.76 140.084 193.721 136.553 195.199C135.31 195.719 135.25 195.716 132.113 195.007C129.021 194.308 128.888 194.253 127.25 192.987C126.323 192.271 125.533 191.652 125.495 191.611C125.456 191.57 126.542 190.857 127.909 190.026C129.275 189.195 131.206 187.817 132.199 186.965C134.03 185.393 134.42 185.263 135.135 185.98C135.355 186.2 135.723 186.351 135.954 186.317C136.185 186.282 137.283 185.242 138.394 184.006C139.962 182.262 140.498 181.816 140.782 182.017C142.139 182.972 142.439 183.093 142.882 182.864C143.79 182.395 143.482 181.6 141.788 180.035C139.442 177.868 138.29 177.128 137.627 177.364C137.221 177.508 137.067 177.468 136.968 177.195C136.896 176.998 137.789 172.477 138.952 167.148L141.065 157.46L144.472 157.905C150.083 158.637 153.233 158.521 157.854 157.414C162.749 156.24 168.647 153.177 172.733 149.685C175.098 147.664 178.567 143.347 180.128 140.48C182.259 136.568 183.675 131.326 184.178 125.487C184.725 119.132 183.018 111.957 179.545 106.019C175.321 98.7949 169.429 94.1256 160.309 90.7757C158.728 90.1948 157.279 89.5786 157.09 89.4064C156.901 89.2343 156.631 87.9382 156.489 86.5262C155.816 79.7787 152.262 74.9968 145.995 72.4062C144.399 71.7465 144.369 71.7166 144.827 71.2634C145.086 71.0074 146.295 69.7008 147.513 68.3598C150.406 65.1773 151.594 64.072 152.02 64.1682C152.211 64.2114 154.027 65.7519 156.056 67.5913ZM133.115 75.1229C135.865 75.9429 136.406 76.1887 137.422 77.0794C138.938 78.4076 140.465 80.8599 140.857 82.5947C141.164 83.9538 141.133 84.1502 138.971 94.5932C136.101 108.452 124.948 157.77 121.994 169.663L119.687 178.951L118.527 180.401C117.146 182.126 115.194 183.339 113.007 183.83L111.429 184.184L84.1734 178.113C69.1825 174.774 53.5372 171.193 49.4058 170.155L41.8944 168.267L50.5853 129.179C59.4721 89.2109 66.1439 60.4661 66.6021 60.1727C66.7434 60.0822 69.0968 60.4389 71.832 60.9652C78.6353 62.2746 129.215 73.9594 133.115 75.1229ZM148.376 80.1065C149.564 81.4151 150.772 83.7502 151.186 85.541L151.551 87.1131L149.116 98.7516C145.609 115.508 134.362 165.164 132.326 172.877C130.504 179.78 129.781 181.811 128.663 183.168C127.493 184.588 123.265 186.508 121.399 186.466C120.299 186.441 120.371 186.152 121.869 184.576C123.651 182.701 124.303 181.676 125.007 179.639C125.361 178.617 130.394 156.825 136.192 131.213L146.734 84.6459L146 81.4944C145.596 79.7611 145.345 78.2611 145.442 78.1614C145.69 77.905 147.416 79.049 148.376 80.1065ZM98.3184 78.2208C91.4345 77.5347 84.5254 79.1235 77.6347 82.9773C71.8781 86.1967 66.2674 92.4226 63.8712 98.2494C61.8244 103.227 60.4899 109.836 60.6796 114.055C60.7997 116.723 62.0152 122.621 62.9696 125.169C64.551 129.389 69.87 136.772 73.4592 139.73C77.5155 143.072 80.6034 144.471 87.2206 145.968C92.7291 147.213 95.1524 147.42 98.5523 146.933C107.581 145.641 115.172 141.499 120.706 134.845C123.137 131.921 124.499 129.772 125.854 126.719C130.669 115.869 129.846 103.791 123.623 93.9698C120.005 88.2602 114.818 83.7739 108.716 81.0764C105.922 79.8413 100.992 78.4873 98.3184 78.2208ZM165.896 99.5223C166.646 99.967 167.281 100.478 167.307 100.658C167.361 101.048 166.463 102.172 163.682 105.192C161.011 108.094 160.964 108.117 159.726 107.116C158.401 106.046 154.886 102.54 154.759 102.162C154.632 101.787 156.34 100.636 159.298 99.1004C162.734 97.3176 162.106 97.2774 165.896 99.5223ZM97.3981 89.0253L96.2233 93.9034L92.7107 93.1011C88.3054 92.0948 87.844 91.8691 88.078 90.834C88.2931 89.883 91.2243 85.4609 92.1366 84.7108C93.2499 83.796 95.2868 83.5503 97.8704 84.0197L98.5727 84.1472L97.3981 89.0253ZM107.928 87.0353C108.548 87.4415 109.09 88.0613 109.291 88.5937C109.785 89.8995 110.422 96.4268 110.077 96.6475C109.919 96.7486 107.941 96.4936 105.682 96.0807L101.574 95.3305L102.709 90.3086L103.845 85.287L105.372 85.824C106.213 86.1196 107.363 86.6645 107.928 87.0353ZM173.531 107.444L175.1 109.869L173.349 113.882C172.385 116.089 171.552 117.929 171.497 117.971C171.223 118.181 165.282 112.315 165.371 111.921C165.468 111.488 168.991 107.14 170.212 105.945C170.816 105.354 171.457 104.904 171.636 104.944C171.815 104.985 172.668 106.11 173.531 107.444ZM117.779 95.6295C118.461 96.576 119.218 97.7931 119.462 98.3345L119.905 99.3187L118.126 98.7902C117.147 98.4994 116.137 98.0505 115.88 97.7923C115.441 97.3513 115.206 95.6971 115.267 93.4817L115.29 92.6162L115.915 93.2625C116.258 93.618 117.097 94.6831 117.779 95.6295ZM84.3978 86.0856C84.3874 86.1198 83.9655 86.9565 83.4603 87.9444C82.3079 90.1972 81.7769 90.5031 79.7969 90.0553C78.9921 89.8733 78.2905 89.5968 78.2376 89.4409C78.185 89.2849 78.7403 88.7745 79.4717 88.3064C81.6797 86.8933 84.5418 85.603 84.3978 86.0856ZM212.015 121.062C213.132 123.671 212.977 127.389 211.633 130.196C211.1 131.31 206.424 136.577 188.55 156.198C158.007 189.727 148.281 200.213 146.795 201.216C146.174 201.636 144.849 202.178 143.85 202.42C142.154 202.834 141.861 202.823 139.35 202.255C135.881 201.471 135.644 201.144 137.967 200.35C141.125 199.272 142.494 198.447 144.477 196.425C153.257 187.476 201.693 134.169 207.989 126.525C209.105 125.171 209.254 124.841 209.978 122.119C210.873 118.754 210.998 118.69 212.015 121.062ZM156.366 111.482L156.976 112.289L155.203 114.429C154.228 115.606 152.659 117.332 151.716 118.264L150 119.959L150.041 118.765C150.09 117.35 152.136 108.83 152.521 108.441C152.829 108.13 155.33 110.108 156.366 111.482ZM178.334 118.416C178.596 119.894 178.896 124.555 178.736 124.657C178.52 124.795 176.434 122.847 176.004 122.106C175.621 121.445 175.632 121.382 176.402 119.759C177.802 116.807 178.022 116.654 178.334 118.416ZM79.2342 95.6591C79.2846 96.0174 76.7499 103.37 76.0039 105.03L75.704 105.697L72.4037 104.924C68.7498 104.068 67.9233 103.726 67.9455 103.077C67.9692 102.392 70.308 97.7829 71.6816 95.7146L72.9231 93.8451L76.0506 94.5523C78.5488 95.1172 79.1895 95.3399 79.2342 95.6591ZM94.0207 104.227L92.8136 109.566L87.0023 108.252L81.1909 106.937L81.924 104.498C83.0319 100.811 84.5947 97.2777 85.2441 96.9917C85.6526 96.8118 86.9403 97.0148 90.5064 97.8212L95.2279 98.8888L94.0207 104.227ZM109.875 102.601C110.161 102.92 110.319 103.616 110.308 104.503C110.289 105.836 109.801 112.623 109.687 113.129C109.654 113.272 107.317 112.845 103.859 112.063L98.0851 110.758L99.2922 105.419L100.499 100.081L104.962 101.09C108.52 101.895 109.516 102.201 109.875 102.601ZM121.855 105.205C122.542 105.732 122.932 107.111 123.179 109.885C123.351 111.827 123.387 115.551 123.24 116.202C123.206 116.351 121.506 116.038 118.882 115.4L114.579 114.354L115.02 110.445C115.262 108.296 115.527 105.861 115.607 105.034L115.754 103.53L118.533 104.159C120.061 104.504 121.556 104.975 121.855 105.205ZM163.923 118.447C166.218 120.582 168.642 123.123 168.593 123.342C168.431 124.059 164.168 129.956 163.138 130.889L162.479 131.485L160.351 129.632C157.411 127.072 154.447 124.052 154.529 123.698C154.64 123.215 160.914 115.88 161.167 115.937C161.209 115.947 162.449 117.076 163.923 118.447ZM176.267 129.982C177.671 131.447 177.824 131.979 177.26 133.435C175.976 136.754 173.163 141.468 172.633 141.188C172.49 141.112 171.032 139.792 169.394 138.254L166.416 135.459L167.003 134.641C167.798 133.535 171.758 127.829 172.241 127.095L172.628 126.507L173.885 127.656C174.576 128.288 175.648 129.335 176.267 129.982ZM71.918 110.09L74.5337 110.854L74.2935 112.698C73.9406 115.41 73.4525 120.48 73.4922 121.028C73.5234 121.462 73.2728 121.446 70.6366 120.85C68.0001 120.254 67.7011 120.134 67.2255 119.478C66.6203 118.643 66.198 115.047 66.3022 111.619C66.3984 108.464 66.3751 108.471 71.918 110.09ZM90.5092 119.756L89.297 125.117L84.0572 123.842C81.0125 123.101 78.738 122.437 78.6286 122.257C78.4387 121.945 78.7728 118.754 79.4533 114.383C79.7877 112.236 79.866 112.017 80.3051 112.002C80.5709 111.993 83.2485 112.528 86.2549 113.19L91.7214 114.396L90.5092 119.756ZM108.264 119.406C107.805 121.417 106.122 126.549 105.667 127.33C104.999 128.472 104.334 128.47 99.2108 127.312L94.5786 126.264L95.7857 120.926L96.9929 115.588L102.766 116.893L108.54 118.199L108.264 119.406ZM121.744 122.187C120.919 124.213 118.984 128.008 118.05 129.434C117.111 130.868 117.007 130.945 116.052 130.904C115.497 130.881 113.925 130.615 112.558 130.315L110.073 129.768L110.575 128.345C110.852 127.563 111.596 125.368 112.229 123.469C112.862 121.569 113.49 119.947 113.625 119.865C114.04 119.613 115.045 119.744 118.647 120.521L122.118 121.269L121.744 122.187ZM158.232 135.041L159.15 135.952L157.476 137.515C155.673 139.199 152.306 141.926 151.546 142.318C151.149 142.523 150.661 142.188 148.328 140.111L145.577 137.663L146.151 135.096C146.817 132.119 147.438 130.888 149.206 129.038L150.468 127.717L153.891 130.923C155.774 132.686 157.727 134.539 158.232 135.041ZM166.307 142.377C167.841 143.84 169.127 145.086 169.166 145.145C169.294 145.341 163.288 149.194 161.541 150.037L159.829 150.863L157.602 148.845C156.378 147.735 155.396 146.729 155.42 146.61C155.479 146.32 160.972 141.204 162.171 140.322C162.692 139.939 163.208 139.646 163.318 139.671C163.428 139.695 164.772 140.913 166.307 142.377ZM72.8999 127.113C73.3387 127.551 73.7824 131.602 73.4171 131.836C72.9565 132.13 69.9441 127.766 69.5171 126.185C69.3803 125.678 69.4577 125.676 70.9134 126.158C71.7612 126.439 72.6551 126.869 72.8999 127.113ZM87.278 134.033C86.1765 138.888 85.767 140.041 85.1943 139.898C84.972 139.843 83.6176 139.206 82.1847 138.483L79.5795 137.168L79.1909 133.339C78.9771 131.234 78.8956 129.231 79.0098 128.89C79.1886 128.354 79.3784 128.283 80.3814 128.371C81.0216 128.428 83.0459 128.796 84.8802 129.188L88.2149 129.902L87.278 134.033ZM100.716 132.961L102.312 133.491L102.058 134.309C101.919 134.76 100.957 136.448 99.9208 138.061C97.6988 141.519 97.5128 141.626 93.9649 141.489C92.0213 141.415 91.5845 141.331 91.4734 141.014C91.3991 140.802 91.8218 138.484 92.4123 135.862L93.4864 131.094L96.3037 131.763C97.8534 132.13 99.8389 132.669 100.716 132.961ZM110.74 135.163C111.152 135.348 111.457 135.636 111.42 135.803C111.382 135.97 110.076 136.892 108.517 137.852C105.856 139.491 105.688 139.556 105.756 138.917C105.796 138.543 106.266 137.508 106.802 136.618C108.033 134.571 108.796 134.29 110.74 135.163ZM145.711 144.923C146.375 145.663 146.22 145.958 144.654 146.94L143.271 147.807L143.574 146.467C144.058 144.325 144.735 143.836 145.711 144.923ZM152.085 151.068C153.043 152.27 153.033 152.276 150.013 152.416C148.839 152.471 147.669 152.528 147.411 152.543C147.116 152.561 146.975 152.432 147.029 152.193C147.13 151.747 150.431 149.859 150.925 149.965C151.112 150.005 151.634 150.501 152.085 151.068ZM83.9471 161.728C82.8765 166.603 82.8709 167.011 83.8707 167.345C84.7922 167.652 85.2265 167.337 85.6228 166.073C85.9285 165.1 85.9336 165.097 87.4287 165.133C89.6173 165.185 91.014 164.198 91.4438 162.298C91.8461 160.519 91.008 159.868 86.1132 158.158L84.8294 157.709L83.9471 161.728ZM103.193 166.348C102.111 171.135 102.133 171.637 103.43 171.777C104.151 171.855 104.22 171.78 104.782 170.323C105.107 169.478 105.494 168.814 105.643 168.847C105.791 168.881 106.426 169.806 107.054 170.903C108.152 172.821 108.242 172.909 109.394 173.169C110.742 173.474 110.74 173.486 109.694 171.367C108.825 169.606 108.818 169.332 109.62 168.486C110.361 167.703 110.847 166.119 110.612 165.249C110.441 164.616 109.317 163.924 107.329 163.227C106.589 162.969 105.575 162.598 105.074 162.405L104.164 162.053L103.193 166.348ZM49.097 150.255C48.8078 150.48 48.462 151.702 47.828 154.74L46.9562 158.917L47.643 159.158C48.5335 159.471 49.0873 159.167 49.5382 158.117C49.9197 157.228 50.1565 157.132 52.1703 157.046C53.476 156.991 54.9967 156.163 55.4495 155.261C55.9215 154.321 55.6031 153.038 54.6473 152.028C53.9455 151.287 53.4562 151.045 51.6515 150.544C49.9476 150.071 49.4109 150.01 49.097 150.255ZM60.1661 152.752C59.8471 153.019 55.1982 160.347 55.1256 160.697C55.1036 160.803 55.4753 160.977 55.9515 161.084C56.6408 161.24 56.9896 161.134 57.6617 160.565C58.2221 160.09 58.784 159.87 59.3319 159.911C60.3832 159.99 61.7236 160.706 61.6263 161.136C61.498 161.704 62.2452 162.508 63.0756 162.695C63.5134 162.794 63.8979 162.759 63.93 162.617C64.0202 162.218 63.169 155.49 62.8823 154.334C62.7422 153.77 62.46 153.195 62.2556 153.057C61.6348 152.639 60.4992 152.473 60.1661 152.752ZM68.8258 154.984C67.26 155.416 66.3075 156.467 66.4344 157.624C66.5419 158.605 67.3499 159.452 69.3336 160.663C71.0458 161.708 71.079 162.332 69.423 162.353C68.653 162.363 68.0875 162.187 67.1845 161.657C65.6318 160.744 65.6727 160.745 65.4787 161.603C65.2457 162.633 65.5778 162.936 67.6958 163.623C69.9307 164.349 71.1706 164.292 72.3173 163.411C73.9603 162.148 73.509 160.52 71.0606 158.875C69.6716 157.942 68.8059 156.905 69.1338 156.567C69.4335 156.258 71.5573 156.835 72.605 157.51C73.1117 157.836 73.5542 158.111 73.5881 158.121C73.7367 158.164 73.9471 156.706 73.8371 156.395C73.4464 155.284 70.6213 154.489 68.8258 154.984ZM77.5828 156.897C74.349 157.788 74.2277 160.278 77.3258 162.166C78.1325 162.658 78.9695 163.274 79.1855 163.536C79.5262 163.949 79.5206 164.035 79.1439 164.182C78.2739 164.523 77.0039 164.303 75.8572 163.612C74.3159 162.683 74.2061 162.681 74.0036 163.577C73.8578 164.222 73.9609 164.448 74.6154 164.918C75.7371 165.723 78.3069 166.238 79.7144 165.94C81.0042 165.667 81.5613 165.161 81.8176 164.027C82.08 162.867 81.3618 161.823 79.4342 160.565C78.0887 159.686 77.7347 159.329 77.8227 158.939C77.9163 158.526 78.1389 158.472 79.1227 158.628C79.7991 158.735 80.6775 159.08 81.1649 159.43C81.6957 159.811 82.1296 159.974 82.3088 159.859C82.7663 159.567 82.516 158.18 81.9141 157.674C81.0932 156.983 78.7768 156.568 77.5828 156.897ZM96.2631 160.841C94.3001 160.89 92.3829 163.057 92.2038 165.429C92.0065 168.043 93.3099 169.616 96.0706 170.096C98.8908 170.586 100.366 169.514 101.053 166.473C101.52 164.407 101.242 163.079 100.157 162.197C99.1728 161.398 97.4854 160.81 96.2631 160.841ZM112.811 164.797C112.181 165.532 112.622 166.15 113.999 166.462L115.242 166.743L114.477 170.124C113.959 172.414 113.787 173.625 113.945 173.878C114.207 174.298 115.462 174.656 115.725 174.385C115.82 174.287 116.305 172.774 116.804 171.022C117.315 169.223 117.854 167.762 118.04 167.667C118.221 167.573 118.717 167.535 119.142 167.581C119.729 167.645 119.968 167.524 120.136 167.078C120.258 166.755 120.229 166.359 120.071 166.199C119.913 166.039 118.292 165.568 116.468 165.153C113.545 164.489 113.111 164.447 112.811 164.797ZM98.0693 163.25C98.4134 163.543 98.8207 164.314 98.9744 164.965C99.232 166.055 99.2091 166.213 98.6793 166.979C98.0049 167.955 96.7689 168.711 96.0967 168.559C95.8359 168.5 95.3681 168.104 95.0571 167.679C94.5425 166.976 94.526 166.754 94.8751 165.21C95.2241 163.666 95.3347 163.473 96.1018 163.059C97.0876 162.528 97.2377 162.543 98.0693 163.25ZM107.919 165.363C108.428 165.809 108.223 167.076 107.588 167.403C107.352 167.525 106.849 167.517 106.471 167.384C105.855 167.167 105.801 167.031 105.948 166.066C106.078 165.206 106.207 164.986 106.59 164.973C107.378 164.946 107.474 164.974 107.919 165.363ZM53.0851 153.632C53.271 154.548 52.6214 155.016 51.4497 154.813C50.3887 154.628 50.0934 153.939 50.7191 153.108C51.0737 152.637 51.3392 152.56 52.0513 152.721C52.7597 152.881 52.97 153.066 53.0851 153.632ZM88.7156 161.56C88.9817 162.545 88.5572 163.236 87.7395 163.148C86.7626 163.043 86.3905 162.474 86.6241 161.441C86.8073 160.631 86.8675 160.594 87.6881 160.779C88.3081 160.919 88.6031 161.143 88.7156 161.56ZM61.2266 158.171C61.1613 158.543 60.255 158.583 59.8998 158.231C59.6332 157.966 60.1724 156.172 60.6736 155.656C60.8749 155.448 61.3361 157.547 61.2266 158.171ZM137.793 179.232C138.324 179.996 138.137 180.396 136.454 182.094L134.94 183.622L135.526 181.617C135.848 180.514 136.221 179.366 136.356 179.066C136.644 178.422 137.282 178.495 137.793 179.232Z" fill="white"/>
</svg>
