<svg width="217" height="214" viewBox="0 0 217 214" fill="none" xmlns="http://www.w3.org/2000/svg">
<path fill-rule="evenodd" clip-rule="evenodd" d="M95.0915 0.232638C71.3555 4.58164 55.4575 11.7526 39.6515 25.2396C25.4605 37.3476 14.9385 52.3116 8.4285 69.6416C-1.1655 95.1826 0.184505 128.781 11.7305 151.848C13.0295 154.442 14.0915 156.993 14.0915 157.516C14.0915 158.039 12.0605 160.847 9.5785 163.755C0.778503 174.065 -2.1635 184.369 1.6095 191.666C4.6465 197.54 11.0785 196.389 24.6185 187.55C32.1715 182.619 33.6375 181.985 34.2585 183.381C35.2245 185.556 46.5335 194.405 53.9285 198.773C71.4765 209.138 88.4405 213.871 108.092 213.885C127.628 213.899 141.049 210.748 158.309 202.094C187.801 187.306 210.402 155.794 215.137 122.863C216.93 110.399 215.901 91.2216 212.812 79.5106C210.056 69.0656 204.279 56.0816 198.7 47.7916C195.383 42.8616 195.205 42.1856 195.686 36.3416C196.284 29.0716 195.124 26.2426 190.18 22.9106C186.692 20.5596 179.895 19.8356 177.22 21.5306C176.277 22.1276 172.995 20.5536 166.72 16.4936C149.664 5.45864 133.463 0.598638 112.092 0.107638C104.117 -0.0753621 96.4665 -0.0193621 95.0915 0.232638ZM128.232 8.19964C140.596 10.5196 158.314 18.0426 167.377 24.8206C169.04 26.0636 168.901 26.4116 165.362 29.8666L161.562 33.5776L136.312 27.2056L111.065 20.8346L103.057 24.7066C94.8075 28.6956 92.9925 30.6016 95.0635 33.0966C96.1445 34.3996 107.333 40.7376 129.592 52.6576C133.992 55.0136 137.752 57.0686 137.948 57.2256C138.361 57.5546 121.42 78.3096 120.044 79.1606C119.537 79.4736 115.463 79.2286 110.99 78.6166L102.857 77.5036L97.4745 81.0766C89.2185 86.5586 89.9075 87.7006 106.092 95.3586L116.592 100.327L122.525 112.479C126.853 121.343 128.948 124.631 130.266 124.631C131.259 124.631 133.671 122.494 135.625 119.881C139.036 115.32 139.155 114.881 138.604 108.852C138.288 105.398 137.777 101.308 137.468 99.7626C136.95 97.1696 137.774 96.2506 148.185 87.8196L159.464 78.6866L161.566 82.4086C162.723 84.4556 167.832 93.8526 172.92 103.292C178.009 112.73 182.822 120.993 183.618 121.654C186.088 123.703 187.88 122.007 192.088 113.639L196.15 105.559L189.726 80.4656L183.302 55.3726L186.71 51.7516L190.12 48.1306L192.523 51.0426C196.305 55.6276 202.724 69.3596 205.667 79.1666C209.492 91.9086 210.226 114.805 207.242 128.303C197.871 170.7 163.274 201.581 119.345 206.762C108.988 207.983 94.3065 206.875 83.4115 204.048C76.0745 202.145 63.6185 196.796 56.4325 192.462C50.3045 188.766 38.0655 178.996 38.1385 177.859C38.1645 177.459 42.1015 173.888 46.8885 169.924C58.7315 160.117 73.2035 146.681 94.3895 125.825C107.685 112.737 112.113 107.779 111.89 106.228C111.194 101.38 108.041 103.428 91.7665 119.299C60.2795 150.007 33.4585 173.762 32.2595 172.004C31.8925 171.465 29.5075 168.123 26.9595 164.578C14.9005 147.795 8.9225 128.688 8.9845 107.131C9.0415 87.4056 13.2615 71.5926 22.7685 55.4666C28.3365 46.0236 41.7325 31.4036 50.5455 25.1516C62.2015 16.8826 77.4125 10.4496 91.5915 7.79164C99.7295 6.26564 119.076 6.48164 128.232 8.19964ZM187.52 29.2016C189.572 31.2546 189.532 37.5246 187.447 40.6576C186.542 42.0176 183.544 45.4686 180.785 48.3256L175.769 53.5206L182.35 79.2796C188.92 104.996 188.927 105.043 187.176 108.457L185.423 111.875L173.986 91.0026C166.093 76.5966 162.027 70.1306 160.861 70.1306C159.933 70.1306 152.578 75.5046 144.517 82.0716L129.862 94.0126L130.459 99.0716C130.787 101.855 131.35 106.268 131.71 108.881C132.086 111.612 131.968 113.631 131.434 113.631C130.922 113.631 128.498 109.526 126.048 104.508L121.592 95.3846L112.342 90.7816C99.5765 84.4296 99.7865 83.7266 113.775 86.0016C118.275 86.7336 122.349 87.0616 122.827 86.7316C125.691 84.7546 147.146 57.1476 146.883 55.7776C146.696 54.8016 138.324 49.6576 126.33 43.1516C115.199 37.1126 106.092 31.8796 106.092 31.5226C106.092 31.1656 107.541 30.2726 109.312 29.5386C112.28 28.3096 114.471 28.6966 137.062 34.4306C150.554 37.8546 162.286 40.6506 163.134 40.6436C163.982 40.6366 166.682 38.5526 169.134 36.0136C171.586 33.4746 174.942 30.5516 176.592 29.5176C180.249 27.2266 185.395 27.0776 187.52 29.2016ZM23.0315 170.803L27.4705 176.917L24.6425 179.172C20.5995 182.396 9.86951 188.631 8.36451 188.631C6.77951 188.631 6.6525 181.917 8.1615 177.946C9.3765 174.748 16.7835 164.616 17.8735 164.66C18.2685 164.676 20.5895 167.44 23.0315 170.803Z" fill="white"/>
</svg>
