<svg width="500" height="500" viewBox="0 0 500 500" fill="none" xmlns="http://www.w3.org/2000/svg">
<g style="mix-blend-mode:darken">
<rect width="500" height="500" rx="250" fill="url(#paint0_linear_106_5)"/>
<path d="M150.132 226V215.92L191.7 165.808L193.62 171.472H150.9V158.8H207.444V168.88L165.972 218.992L164.052 213.328H208.884V226H150.132ZM210.027 226L239.979 158.8H255.339L285.387 226H269.067L244.491 166.672H250.635L225.963 226H210.027ZM225.003 211.6L229.131 199.792H263.691L267.915 211.6H225.003ZM323.869 227.152C318.557 227.152 313.661 226.32 309.181 224.656C304.765 222.928 300.893 220.496 297.565 217.36C294.301 214.224 291.741 210.544 289.885 206.32C288.093 202.096 287.197 197.456 287.197 192.4C287.197 187.344 288.093 182.704 289.885 178.48C291.741 174.256 294.333 170.576 297.661 167.44C300.989 164.304 304.893 161.904 309.373 160.24C313.853 158.512 318.781 157.648 324.157 157.648C330.109 157.648 335.453 158.64 340.189 160.624C344.989 162.608 349.021 165.488 352.285 169.264L342.301 178.48C339.869 175.92 337.213 174.032 334.333 172.816C331.453 171.536 328.317 170.896 324.925 170.896C321.661 170.896 318.685 171.408 315.997 172.432C313.309 173.456 310.973 174.928 308.989 176.848C307.069 178.768 305.565 181.04 304.477 183.664C303.453 186.288 302.941 189.2 302.941 192.4C302.941 195.536 303.453 198.416 304.477 201.04C305.565 203.664 307.069 205.968 308.989 207.952C310.973 209.872 313.277 211.344 315.901 212.368C318.589 213.392 321.533 213.904 324.733 213.904C327.805 213.904 330.781 213.424 333.661 212.464C336.605 211.44 339.453 209.744 342.205 207.376L351.037 218.608C347.389 221.36 343.133 223.472 338.269 224.944C333.469 226.416 328.669 227.152 323.869 227.152ZM336.829 216.592V191.344H351.037V218.608L336.829 216.592ZM149.156 343V275.8H178.244C184.26 275.8 189.444 276.792 193.796 278.776C198.148 280.696 201.508 283.48 203.876 287.128C206.244 290.776 207.428 295.128 207.428 300.184C207.428 305.176 206.244 309.496 203.876 313.144C201.508 316.728 198.148 319.48 193.796 321.4C189.444 323.32 184.26 324.28 178.244 324.28H157.796L164.708 317.464V343H149.156ZM191.875 343L175.076 318.616H191.684L208.676 343H191.875ZM164.708 319.192L157.796 311.896H177.38C182.18 311.896 185.764 310.872 188.132 308.824C190.5 306.712 191.684 303.832 191.684 300.184C191.684 296.472 190.5 293.592 188.132 291.544C185.764 289.496 182.18 288.472 177.38 288.472H157.796L164.708 281.08V319.192ZM210.917 343L240.869 275.8H256.229L286.277 343H269.957L245.381 283.672H251.525L226.853 343H210.917ZM225.893 328.6L230.021 316.792H264.581L268.805 328.6H225.893ZM293.249 343V275.8H306.113L345.761 324.184H339.521V275.8H354.881V343H342.113L302.369 294.616H308.609V343H293.249Z" fill="white"/>
</g>
<defs>
<linearGradient id="paint0_linear_106_5" x1="250" y1="0" x2="250" y2="500" gradientUnits="userSpaceOnUse">
<stop stop-color="#0070F3"/>
<stop offset="1" stop-color="#0070F3"/>
</linearGradient>
</defs>
</svg>
